<svg width="40" height="40" viewBox="0 0 40 40" fill="none" xmlns="http://www.w3.org/2000/svg">
<path d="M8.33329 11.6667H31.6666C32.6666 11.6667 33.3333 11 33.3333 10C33.3333 9.00004 32.6666 8.33337 31.6666 8.33337H8.33329C7.33329 8.33337 6.66663 9.00004 6.66663 10C6.66663 11 7.33329 11.6667 8.33329 11.6667Z" fill="#FFD78A"/>
<path d="M8.33329 21.6667H31.6666C32.6666 21.6667 33.3333 21 33.3333 20C33.3333 19 32.6666 18.3334 31.6666 18.3334H8.33329C7.33329 18.3334 6.66663 19 6.66663 20C6.66663 21 7.33329 21.6667 8.33329 21.6667Z" fill="#FFD78A"/>
<path d="M8.33329 31.6667H31.6666C32.6666 31.6667 33.3333 31 33.3333 30C33.3333 29 32.6666 28.3334 31.6666 28.3334H8.33329C7.33329 28.3334 6.66663 29 6.66663 30C6.66663 31 7.33329 31.6667 8.33329 31.6667Z" fill="#FFD78A"/>
</svg>
