<svg width="24" height="24" viewBox="0 0 24 24" fill="none" xmlns="http://www.w3.org/2000/svg">
<path d="M19.7195 4.16815C17.5384 1.98672 14.6375 0.785034 11.5522 0.785034C5.18259 0.785034 0.000357963 5.96727 0 12.3365C0.000357963 18.7058 5.18259 23.888 11.5522 23.888C14.6375 23.888 17.5384 22.6863 19.7195 20.5042C21.902 18.3227 23.1033 15.4218 23.103 12.3365C23.1033 9.25123 21.9016 6.35029 19.7195 4.16815ZM17.9415 16.6149C18.2339 15.4744 18.4136 14.2402 18.4566 12.9476H21.6511C21.5404 14.814 20.9247 16.5827 19.8698 18.0983C19.4643 17.5356 18.8017 17.0319 17.9415 16.6149ZM13.5307 22.2632C13.0245 22.3631 12.5072 22.4236 11.9828 22.4454V16.0919C13.9405 16.137 15.7368 16.4857 17.0945 17.0219C16.3664 19.4729 15.086 21.3754 13.5307 22.2632ZM6.00913 17.0215C7.40054 16.4721 9.253 16.1202 11.2669 16.0898V22.4486C10.6866 22.4325 10.1178 22.3692 9.56585 22.2593C8.01373 21.369 6.73616 19.4686 6.00913 17.0215ZM3.23635 18.0936C2.20935 16.6152 1.56645 14.8519 1.45226 12.9476H4.64708C4.69039 14.2398 4.87009 15.4744 5.16255 16.6145C4.30415 17.0305 3.64228 17.5327 3.23635 18.0936ZM1.43436 12.2316C1.45512 10.226 2.06187 8.35918 3.09209 6.79273C3.46186 7.42132 4.14593 7.98475 5.06769 8.44581C4.79635 9.62709 4.64529 10.9022 4.63777 12.2316H1.43436ZM5.36337 12.9476H6.29658C6.49453 12.9476 6.65454 12.7875 6.65454 12.5896C6.65454 12.3916 6.49453 12.2316 6.29658 12.2316H5.3537C5.36086 11.0074 5.49187 9.8322 5.72813 8.74184C7.20151 9.33606 9.12592 9.70226 11.2673 9.73233V12.2316H8.08639C7.88844 12.2316 7.72843 12.3916 7.72843 12.5896C7.72843 12.7875 7.88844 12.9476 8.08639 12.9476H11.2669V15.3738C9.17031 15.4032 7.28169 15.7543 5.82048 16.3274C5.56311 15.2754 5.40417 14.1381 5.36337 12.9476ZM9.5655 2.41377C10.1178 2.30316 10.6866 2.24016 11.2669 2.22405V9.0164C9.20002 8.98526 7.30209 8.61584 5.89888 8.04131C6.60263 5.40742 7.93175 3.35056 9.5655 2.41377ZM17.2044 8.04131C15.8349 8.60224 13.9928 8.96808 11.9828 9.01425V2.22727C12.5072 2.2491 13.0245 2.30924 13.531 2.40947C15.168 3.34411 16.4996 5.40312 17.2044 8.04131ZM11.9828 9.73054C14.0655 9.68615 15.9358 9.32282 17.3755 8.74184C17.6118 9.8322 17.7425 11.0074 17.75 12.2316H11.9828V9.73054ZM11.9828 15.3756V12.9476H17.7403C17.6995 14.1381 17.5402 15.2758 17.2832 16.3278C15.8556 15.7683 14.0211 15.4189 11.9828 15.3756ZM18.4655 12.2316C18.458 10.9022 18.3073 9.62709 18.036 8.44581C18.9606 7.98296 19.6461 7.41738 20.0152 6.78593C21.0729 8.39176 21.6486 10.2671 21.6682 12.2313L18.4655 12.2316ZM19.5387 6.12477C19.3447 6.72472 18.7433 7.28028 17.8556 7.74062C17.3039 5.76681 16.4094 4.09763 15.2951 2.93138C16.5576 3.4336 17.7178 4.19106 18.7075 5.18082C19.0064 5.48008 19.2821 5.79652 19.5387 6.12477ZM7.80002 2.94105C6.68962 4.10658 5.79865 5.77218 5.24846 7.74062C4.36357 7.28171 3.76327 6.72866 3.56711 6.13086C4.66247 4.72442 6.12046 3.61438 7.80002 2.94105ZM3.68845 18.6968C3.97196 18.1817 4.55508 17.707 5.35835 17.3083C5.91391 19.1131 6.76121 20.6413 7.80002 21.7316C6.18203 21.0837 4.7695 20.0302 3.68845 18.6968ZM15.2947 21.7413C16.3378 20.6499 17.1883 19.1185 17.7453 17.3086C18.5507 17.7085 19.1353 18.1849 19.4177 18.7022C19.1954 18.9753 18.9592 19.2391 18.7068 19.4915C17.717 20.4816 16.5572 21.2391 15.2947 21.7413Z" fill="#F2C162"/>
</svg>
