<svg width="25" height="25" viewBox="0 0 25 25" fill="none" xmlns="http://www.w3.org/2000/svg">
<path d="M7.84109 17.5773L9.15456 18.7988H5.55721C4.45867 18.7988 3.64146 18.4732 3.31586 17.9053C2.98968 17.3374 3.12015 16.4677 3.6735 15.5189L5.49547 12.3962L3.48303 11.222L1.66106 14.3446C0.660952 16.0583 0.531643 17.7352 1.29526 19.065C2.05947 20.3953 3.57273 21.1281 5.55721 21.1281H9.15514L7.84109 22.3495L9.42774 24.0562L13.8295 19.9643L9.42774 15.8713L7.84109 17.5773Z" fill="#F2C162"/>
<path d="M18.4064 7.72694L15.9046 3.43878C14.9069 1.72747 13.5072 0.785034 11.9636 0.785034C10.4207 0.785034 9.02099 1.72747 8.02263 3.43878L6.84371 5.45937L6.45054 3.70846L4.17773 4.21929L5.4947 10.083L11.2478 8.34319L10.5733 6.11349L8.85732 6.63247L10.0357 4.61304C10.5902 3.66128 11.2932 3.11492 11.9636 3.11492C12.6341 3.11492 13.3371 3.66128 13.8928 4.61246L16.3945 8.90062L18.4064 7.72694Z" fill="#F2C162"/>
<path d="M17.0895 15.9023L19.3623 16.4131L19.7555 14.6634L20.2541 15.5179C20.8075 16.4667 20.9379 17.3363 20.6117 17.9048C20.2856 18.4727 19.4689 18.7978 18.3704 18.7978H16.0405V21.1277H18.3704C20.3543 21.1277 21.8681 20.3949 22.6318 19.0651C23.396 17.7348 23.2661 16.0584 22.2665 14.3442L21.7674 13.4885L23.4845 14.0075L24.159 11.7778L18.4065 10.038L17.0895 15.9023Z" fill="#F2C162"/>
</svg>
