<svg width="23" height="26" viewBox="0 0 23 26" fill="none" xmlns="http://www.w3.org/2000/svg">
<path d="M12.7674 2.45969C12.5958 0.738073 10.0865 0.738204 9.91487 2.45969L9.24521 9.17818L3.092 6.39888C1.51522 5.68667 0.260698 7.8599 1.66575 8.86923L7.14929 12.8084L1.66574 16.7476C0.26057 17.757 1.51537 19.9301 3.09201 19.218L9.24521 16.4387L9.91488 23.1571C10.0865 24.8788 12.5958 24.8786 12.7674 23.1571L13.4371 16.4387L19.5903 19.218C21.1671 19.9302 22.4216 17.7569 21.0165 16.7476L15.533 12.8084L21.0165 8.86923C22.4217 7.8598 21.1669 5.68674 19.5903 6.39888L13.4371 9.17818L12.7674 2.45969ZM12.8567 16.1765L12.8575 16.1769L12.8567 16.1765Z" stroke="#F2C162" stroke-width="1.89077"/>
</svg>
