<svg width="47" height="47" viewBox="0 0 47 47" fill="none" xmlns="http://www.w3.org/2000/svg">
<circle cx="23.5" cy="23.5" r="23.5" fill="#111111"/>
<path fill-rule="evenodd" clip-rule="evenodd" d="M23.9606 16.5129C21.453 17.5559 16.441 19.7147 8.92485 22.9894C7.70436 23.4749 7.065 23.9498 7.00678 24.4139C6.90842 25.1987 7.89102 25.5076 9.22906 25.9283C9.41106 25.9856 9.59963 26.0449 9.79295 26.1075C11.1094 26.5355 12.8802 27.0362 13.8007 27.0561C14.6358 27.0741 15.5678 26.7299 16.5968 26.0232C23.6192 21.2828 27.2445 18.8868 27.4719 18.835C27.6325 18.7987 27.855 18.7528 28.0059 18.8868C28.1567 19.0209 28.1417 19.2746 28.1258 19.3427C28.0286 19.7578 24.1715 23.3436 22.1754 25.1992C21.5533 25.7778 21.1119 26.188 21.0216 26.2818C20.8195 26.4917 20.6135 26.6902 20.4155 26.881C19.1926 28.06 18.2753 28.9441 20.4663 30.3879C21.519 31.0818 22.3615 31.6554 23.2021 32.2278C24.1199 32.853 25.0355 33.4764 26.2202 34.253C26.5218 34.4508 26.8101 34.6563 27.0908 34.8563C28.159 35.6179 29.1186 36.3022 30.3044 36.1929C30.9933 36.1297 31.7049 35.4818 32.0664 33.5497C32.9205 28.9836 34.5995 19.09 34.9875 15.0133C35.0216 14.6561 34.9788 14.199 34.9442 13.9983C34.9099 13.7977 34.8383 13.5117 34.5773 13.3001C34.2685 13.0494 33.7915 12.9966 33.5783 13.0002C32.6086 13.0174 31.1207 13.5348 23.9606 16.5129Z" stroke="#FFD37E" stroke-width="2" stroke-linejoin="round"/>
</svg>
